<?xml version="1.0"?><svg width="400" height="380" xmlns="http://www.w3.org/2000/svg">
 <title>purple cat</title>

 <g>
  <title>Layer 1</title>
  <path fill="#8456b5" fill-rule="evenodd" stroke-width="1px" id="path1891" d="m151.349045,307.204559l112.999985,0c0,-16.063599 -1.146942,-19.25 -27.749985,-19.25c4.25,-12.75 21.525192,-43.596481 31.124985,-43.596481c8.493042,0 18.625,0.467834 18.625,19.846481c0,22 32.621338,68.565582 46,43c13.378662,-25.565582 -23,-14.98941 -23,-67.000015c0,-71.153198 41.525146,-61.023834 41.525146,-101c0,-19.999992 -5.525146,-22.700806 -5.525146,-36.999992c0,-18.897598 16.648132,-17.800972 13.409027,-33.469673c-2.237457,-10.823219 -3.988434,-19.502888 -5.292908,-32.590988c-0.925568,-9.286581 -1.220642,-19.18449 -10.866608,-18.78651c-11.333496,0.467609 -15.633057,20.416809 -33.249512,21.847172c-17.580505,1.427437 -32.570679,-14.966522 -39.375,-12.625002c-6.746948,2.321781 -4.625,20.625002 -0.625,33.625002c6.286865,20.43222 20,47 -5,51c-24.999985,4 -67.999985,8 -98.999985,48.999992c-31,41 -29.855621,89.116653 -42.000008,104.000015c-40.758339,49.950745 -82.525116,29.441681 -82.525116,71c0,18.605621 31.525116,32 36.525116,26c5,-6 -42.485268,-23.878693 10.646454,-45c45.391624,-18.044434 49.443642,-21.727936 63.353554,-9z"/>
 </g>
</svg>